<svg width="35" height="35" viewBox="0 0 35 35" fill="none" xmlns="http://www.w3.org/2000/svg">
<g id="ep:arrow-up-bold">
<path id="Vector" d="M22.9452 31.0674C23.3469 30.6655 23.5726 30.1206 23.5726 29.5523C23.5726 28.9841 23.3469 28.4391 22.9452 28.0373L12.3376 17.4297L22.9452 6.82216C23.3356 6.418 23.5515 5.87669 23.5467 5.31481C23.5418 4.75294 23.3164 4.21546 22.9191 3.81815C22.5218 3.42083 21.9843 3.19546 21.4224 3.19058C20.8606 3.18569 20.3192 3.40169 19.9151 3.79204L7.79246 15.9147C7.39072 16.3165 7.16504 16.8615 7.16504 17.4297C7.16504 17.998 7.39072 18.5429 7.79246 18.9448L19.9151 31.0674C20.3169 31.4691 20.8619 31.6948 21.4301 31.6948C21.9984 31.6948 22.5433 31.4691 22.9452 31.0674Z" fill="#F8F8F8"/>
</g>
</svg>
